[center][img]http://img580.imageshack.us/img580/5497/willphz.jpg[/img]




Will.2012.DVDRip.XVID.AC3.HQ.Hive-CM8



Thx Hive

CM8 Doing It Right The First Time 


Source: DVD-R Legend-RG
thx

Encode:
dvd was ok, had some video noise, cleaned it up, added sharpness, rgb and
denoise and made it a bit brighter.
enjoy


Video: 720x304 @bitrate 1700 2pass
Audio: English AC3 5.1 @448
Subs: Yes, English in srt /subs
Sample: Yes, included

 
http://www.imdb.com/title/tt1636844/


General
Complete name                  : Will.2012.DVDRip.XVID.AC3.HQ.Hive-CM8.avi
Format                         : AVI
Format/Info                    : Audio Video Interleave
File size                      : 1.47 GiB
Duration                       : 1h 37mn
Overall bit rate               : 2 157 Kbps
Writing application            : Nandub v1.0rc2
Writing library                : Nandub build 1853/release

Video
ID                             : 0
Format                         : MPEG-4 Visual
Format profile                 : Advanced Simple@L5
Format settings, BVOP          : 2
Format settings, QPel          : Yes
Format settings, GMC           : No warppoints
Format settings, Matrix        : Default (H.263)
Muxing mode                    : Packed bitstream
Codec ID                       : XVID
Codec ID/Hint                  : XviD
Duration                       : 1h 37mn
Bit rate                       : 1 700 Kbps
Width                          : 720 pixels
Height                         : 304 pixels
Display aspect ratio           : 2.35:1
Frame rate                     : 25.000 fps
Color space                    : YUV
Chroma subsampling             : 4:2:0
Bit depth                      : 8 bits
Scan type                      : Progressive
Compression mode               : Lossy
Bits/(Pixel*Frame)             : 0.311
Stream size                    : 1.16 GiB (79%)
Writing library                : XviD 1.2.1 (UTC 2008-12-04)

Audio
ID                             : 1
Format                         : AC-3
Format/Info                    : Audio Coding 3
Mode extension                 : CM (complete main)
Codec ID                       : 2000
Duration                       : 1h 37mn
Bit rate mode                  : Constant
Bit rate                       : 448 Kbps
Channel(s)                     : 6 channels
Channel positions              : Front: L C R, Side: L R, LFE
Sampling rate                  : 48.0 KHz
Bit depth                      : 16 bits
Compression mode               : Lossy
Stream size                    : 313 MiB (21%)
Alignment                      : Split accross interleaves
Interleave, duration           : 40 ms (1.00 video frame)
Interleave, preload duration   : 500 ms


Plot:
An orphan journeys across Europe to the 2005 Champions League Final in Istanbul.


Cast:
Damian Lewis     ...     Gareth
Bob Hoskins      ...     Davey
Jane March       ...     Sister Noell
Alice Krige      ...     Sister Carmel
Perry Eggleton   ...     Will


[img]http://img38.imageshack.us/img38/9940/wiwiwwiiwwii.png[/img]
[img]http://img267.imageshack.us/img267/556/wiwiwwiiwi.png[/img]
[img]http://img821.imageshack.us/img821/7789/wiwiwiwi.png[/img]
[img]http://img194.imageshack.us/img194/5346/wiwiwi.png[/img]
[img]http://img832.imageshack.us/img832/4844/wiwif.png[/img]
[img]http://img839.imageshack.us/img839/7381/79733203.png[/img][/center]